# xmcd
#
# Track frame offsets: 
#        150
#        26744
#        53284
#        82406
#        87295
#        117310
#        138971
#        162444
#        171004
#
# Disc length: 2592 seconds
#
# Revision: 0
# Processed by: cddbd v1.5.2PL0 Copyright (c) Steve Scherf et al.
# Submitted via: ExactAudioCopy v1.0b3
#
DISCID=6f0a1e09
DTITLE=Foghat - Live II [CD1]
DYEAR=2007
DGENRE=Blooze Rock
TTITLE0=Night Shift
TTITLE1=Take Me To The River
TTITLE2=Stone Blue
TTITLE3=Slippin' and Slidin' (Drivin' Wheel Intro)
TTITLE4=Drivin' Wheel
TTITLE5=Mumbo Jumbo
TTITLE6=Terraplane Blues
TTITLE7=Bang Bang (Drum Solo)
TTITLE8=Fool For The City
EXTD=
EXTT0=
EXTT1=
EXTT2=
EXTT3=
EXTT4=
EXTT5=
EXTT6=
EXTT7=
EXTT8=
PLAYORDER=
